<svg class="wic" viewBox="0 0 24 24"><defs><linearGradient id="wg-cld" x1="0" y1="0" x2="0" y2="1"><stop offset="0" stop-color="#ffffff"/><stop offset="1" stop-color="#c3d0e0"/></linearGradient><linearGradient id="wg-cld2" x1="0" y1="0" x2="0" y2="1"><stop offset="0" stop-color="#e2e8f0"/><stop offset="1" stop-color="#8fa3bb"/></linearGradient><linearGradient id="wg-sun" x1="0" y1="0" x2="0" y2="1"><stop offset="0" stop-color="#fde047"/><stop offset="1" stop-color="#f59e0b"/></linearGradient><linearGradient id="wg-moon" x1="0" y1="0" x2="0" y2="1"><stop offset="0" stop-color="#fef3c7"/><stop offset="1" stop-color="#fcd34d"/></linearGradient><linearGradient id="wg-bolt" x1="0" y1="0" x2="0" y2="1"><stop offset="0" stop-color="#fde047"/><stop offset="1" stop-color="#eab308"/></linearGradient></defs><g transform="translate(1 -2.2) scale(0.86)"><path d="M18 10h-1.26A8 8 0 1 0 9 20h9a5 5 0 0 0 0-10z" fill="url(#wg-cld)"/></g><path d="M7.4 17.4c-1.38 1.84 -2.07 2.99 -2.07 4.02a2.07 2.07 0 0 0 4.14 0c0 -1.03 -0.69 -2.18 -2.07 -4.02z" fill="#38bdf8"/><path d="M12 18.6c-1.38 1.84 -2.07 2.99 -2.07 4.02a2.07 2.07 0 0 0 4.14 0c0 -1.03 -0.69 -2.18 -2.07 -4.02z" fill="#38bdf8"/><path d="M16.6 17.4c-1.38 1.84 -2.07 2.99 -2.07 4.02a2.07 2.07 0 0 0 4.14 0c0 -1.03 -0.69 -2.18 -2.07 -4.02z" fill="#38bdf8"/></svg>
